<svg width="139" height="133" viewBox="0 0 139 133" fill="#fff" xmlns="http://www.w3.org/2000/svg">
<path d="M108.75 132.4C103.95 132.4 99.9 131.5 96.6 129.7C93.3 127.8 90.85 125.4 89.25 122.5C87.65 119.5 86.85 116.4 86.85 113.2C86.85 109.9 87.65 107.05 89.25 104.65C90.75 102.15 92.6 100.35 94.8 99.25C98.7 92.25 102.1 85.2 105 78.1C107.9 70.9 110.65 63.15 113.25 54.85L135.45 51.85C135.95 64.65 136.8 78.5 138 93.4C138.5 99.4 138.75 103.75 138.75 106.45C138.75 112.55 137.2 117.55 134.1 121.45C131 125.35 127.15 128.15 122.55 129.85C118.05 131.55 113.45 132.4 108.75 132.4ZM103.95 120.55C107.65 120.55 110.75 119.45 113.25 117.25C115.75 115.05 117 111.5 117 106.6C117 103.6 116.7 99.4 116.1 94C115.1 82.6 114.45 74.95 114.15 71.05C111.75 78.95 107.7 88.4 102 99.4C104.3 100.6 105.45 102.35 105.45 104.65C105.45 106.55 104.8 108.25 103.5 109.75C102.3 111.25 100.75 112 98.85 112C96.75 112 95.4 111.35 94.8 110.05C94.8 113.65 95.5 116.3 96.9 118C98.4 119.7 100.75 120.55 103.95 120.55Z"/>
<path d="M31.35 129.6C27.65 129.6 24.4 129.3 21.6 128.7C18.8 128.1 16.35 126.65 14.25 124.35C12.25 122.05 11.25 118.5 11.25 113.7C11.25 107 13.25 98 17.25 86.7C21.35 75.4 26.7 64.05 33.3 52.65C28.3 52.95 24.35 53.7 21.45 54.9C18.55 56.1 16.65 57.95 15.75 60.45C16.15 60.45 16.55 60.95 16.95 61.95C17.45 62.95 17.7 64 17.7 65.1C17.7 66.9 16.9 68.35 15.3 69.45C13.7 70.45 11.7 70.95 9.3 70.95C6.5 70.95 4.25 70.2 2.55 68.7C0.85 67.2 0 65.05 0 62.25C0 58.85 1.3 55.75 3.9 52.95C6.6 50.15 10.3 47.95 15 46.35C19.7 44.65 24.9 43.8 30.6 43.8C32.7 43.8 35.3 43.95 38.4 44.25C46.6 31.25 55.25 20.65 64.35 12.45C73.55 4.15 82.3 0 90.6 0C95.4 0 99.35 0.7 102.45 2.1L78.9 112.5H57.3L68.85 58.05C65.15 56.35 61.75 55.1 58.65 54.3C55.55 53.5 52.25 52.95 48.75 52.65C43.05 64.95 38.35 77.55 34.65 90.45C31.05 103.25 29.25 113.5 29.25 121.2C29.25 125 29.95 127.8 31.35 129.6ZM78.9 10.65C74.6 12.95 70.1 17.25 65.4 23.55C60.8 29.75 56.3 37.3 51.9 46.2C59.1 47.6 65.2 49.35 70.2 51.45L78.9 10.65Z"/>
</svg>
